#!OML:ASF H:\Terrain\Patient Classification 1\Walking\liu\liu.ASF
:FULLY-SPECIFIED
:DEGREES
243
root 9.19685 16.2256 -2.51957 10.1802 -4.60876 -3.77532
lowerback -7.43982 2.04705 0.88145
upperback -2.51681 2.61366 2.19727
thorax 1.50449 1.30934 1.99243
lowerneck -18.238 -5.97914 -14.0635
upperneck 16.3108 -7.63426 15.5087
head 9.32231 -2.92285 6.71797
rclavicle 2.086e-014 -2.38542e-015
rhumerus -45.2119 7.64956 -86.964
rradius 42.9657
rwrist -22.0349
rhand -28.9598 -23.1483
rfingers 7.12502
rthumb -2.31285 -53.1155
lclavicle 2.086e-014 -2.38542e-015
lhumerus -47.0584 -4.71457 88.2932
lradius 19.5733
lwrist -6.15056
lhand -6.8308 -24.5059
lfingers 7.12502
lthumb 19.0335 4.58276
rfemur 16.8104 3.81521 23.8356
rtibia 15.9499
rfoot 5.37968 4.42794
rtoes -15.7201
lfemur -46.8815 9.15961 -21.2268
ltibia 42.7033
lfoot -5.61566 5.14215
ltoes -0.0419034
244
root 9.23838 16.2617 -2.35886 10.1312 -4.96707 -3.34208
lowerback -7.42094 2.17817 0.6971
upperback -2.52828 2.80682 1.95559
thorax 1.48042 1.40552 1.86165
lowerneck -18.4381 -6.0875 -13.8278
upperneck 16.5328 -7.77784 15.1672
head 9.43222 -2.99807 6.53392
rclavicle 4.00675e-015 -6.95746e-015
rhumerus -45.5188 7.57011 -87.0094
rradius 42.5385
rwrist -22.3456
rhand -29.2554 -23.3687
rfingers 7.12502
rthumb -2.59838 -53.3326
lclavicle 4.00675e-015 -6.95746e-015
lhumerus -46.4664 -4.97695 88.2055
lradius 19.4223
lwrist -5.89183
lhand -6.04895 -22.5691
lfingers 7.12502
lthumb 19.7853 6.44394
rfemur 14.8741 3.09893 22.7987
rtibia 20.0626
rfoot 6.32624 4.68337
rtoes -14.2915
lfemur -46.0234 9.17804 -21.7668
ltibia 42.6096
lfoot -6.34245 5.15031
ltoes 0.88296
245
root 9.27326 16.299 -2.20759 10.0396 -5.20667 -2.70471
lowerback -7.06572 2.12274 0.0674147
upperback -2.7248 2.78836 1.84854
thorax 1.05702 1.4012 2.0811
lowerneck -18.5841 -6.048 -13.8506
upperneck 16.8868 -7.68181 14.9228
head 9.55333 -2.9712 6.4731
rclavicle -3.6769e-014 7.55382e-015
rhumerus -46.3517 8.22317 -87.3021
rradius 42.5754
rwrist -23.3507
rhand -30.4205 -24.4115
rfingers 7.12502
rthumb -3.7235 -54.3587
lclavicle -3.6769e-014 7.55382e-015
lhumerus -46.1729 -4.86344 88.1809
lradius 19.2404
lwrist -6.13256
lhand -6.12241 -21.8112
lfingers 7.12502
lthumb 19.7147 7.2091
rfemur 13.154 2.30368 21.6391
rtibia 23.8158
rfoot 7.02717 5.03576
rtoes -15.5738
lfemur -45.2157 9.14628 -22.6014
ltibia 42.5042
lfoot -6.80717 5.17133
ltoes 0.00785024
246
root 9.31121 16.3306 -2.0569 9.93853 -5.50241 -2.12779
lowerback -6.75591 2.05383 -0.452667
upperback -2.90748 2.73692 1.76093
thorax 0.678802 1.38206 2.26008
lowerneck -18.6564 -5.95721 -13.8695
upperneck 17.2712 -7.52799 14.6887
head 9.66312 -2.91994 6.42605
rclavicle 1.20482e-014 1.51076e-014
rhumerus -46.6813 8.58826 -87.4446
rradius 41.7643
rwrist -23.7895
rhand -30.9038 -23.4873
rfingers 7.12502
rthumb -4.19029 -53.4258
lclavicle 1.20482e-014 1.51076e-014
lhumerus -45.9555 -4.58048 87.9888
lradius 19.2965
lwrist -6.79606
lhand -7.06971 -23.0448
lfingers 7.12502
lthumb 18.8038 6.06638
rfemur 11.6115 1.85861 20.6044
rtibia 27.3823
rfoot 7.9479 5.05767
rtoes -16.0579
lfemur -44.3812 9.27172 -23.4004
ltibia 42.3215
lfoot -7.31319 5.20927
ltoes -1.41129
247
root 9.3556 16.3586 -1.90036 9.76238 -5.85443 -1.79992
lowerback -6.38529 2.05378 -0.675997
upperback -3.06967 2.75391 1.74692
thorax 0.295667 1.39674 2.35183
lowerneck -18.4737 -5.85161 -13.953
upperneck 17.477 -7.37709 14.5853
head 9.67392 -2.87252 6.43342
rclavicle -1.94623e-014 -5.56597e-015
rhumerus -46.8088 8.24347 -86.8
rradius 40.5611
rwrist -21.9297
rhand -29.1518 -22.5261
rfingers 7.12502
rthumb -2.49833 -52.4912
lclavicle -1.94623e-014 -5.56597e-015
lhumerus -45.758 -4.76304 88.2269
lradius 19.9566
lwrist -7.30207
lhand -7.36173 -22.5698
lfingers 7.12502
lthumb 18.5229 6.56827
rfemur 10.2037 1.37025 19.7541
rtibia 30.7944
rfoot 9.56213 4.88299
rtoes -15.3751
lfemur -43.374 9.55533 -23.9149
ltibia 42.0992
lfoot -8.08158 5.31458
ltoes -0.666402
248
root 9.39561 16.3954 -1.75449 9.61948 -6.10011 -1.24824
lowerback -5.4885 1.91853 -1.31099
upperback -3.63069 2.61106 1.77903
thorax -0.804568 1.3499 2.68293
lowerneck -18.3441 -5.63659 -13.8775
upperneck 18.1258 -7.09631 14.2202
head 9.80921 -2.77776 6.35089
rclavicle 2.50531e-014 -4.77083e-015
rhumerus -48.342 9.58266 -87.5833
rradius 41.0504
rwrist -24.1587
rhand -30.0814 -24.4907
rfingers 7.12502
rthumb -3.39603 -54.4434
lclavicle 2.50531e-014 -4.77083e-015
lhumerus -46.2515 -5.49026 89.2663
lradius 19.8743
lwrist -4.09232
lhand -9.04816 -23.7439
lfingers 7.12502
lthumb 16.9001 5.54076
rfemur 8.5713 0.534105 18.7084
rtibia 34.0473
rfoot 10.6348 4.86173
rtoes -15.8888
lfemur -42.3769 9.52699 -24.5601
ltibia 41.7357
lfoot -8.82584 5.43124
ltoes 2.59304
249
root 9.43033 16.4255 -1.62185 9.475 -6.40898 -1.32108
lowerback -5.83746 2.00888 -0.945009
upperback -2.99101 2.70945 1.66411
thorax 0.0662706 1.37813 2.39351
lowerneck -19.3138 -5.74031 -13.5618
upperneck 18.0455 -7.17057 14.0893
head 9.95592 -2.76704 6.22915
rclavicle 3.17838e-014 2.34566e-014
rhumerus -47.498 9.72078 -87.9036
rradius 40.737
rwrist -25.4176
rhand -29.9229 -26.9785
rfingers 7.12502
rthumb -3.24298 -56.9336
lclavicle 3.17838e-014 2.34566e-014
lhumerus -44.4299 -5.54866 88.7619
lradius 19.8029
lwrist -5.12247
lhand -9.24877 -23.8447
lfingers 7.12502
lthumb 16.707 5.45635
rfemur 6.88543 0.277535 18.6492
rtibia 37.1974
rfoot 11.2347 3.98186
rtoes -15.9513
lfemur -41.3837 9.32013 -24.3109
ltibia 41.2708
lfoot -9.2667 5.689
ltoes 4.89019
250
root 9.46596 16.4571 -1.47832 9.37211 -6.73566 -1.12432
lowerback -6.07972 2.06442 -0.919359
upperback -2.67214 2.78033 1.54192
thorax 0.533004 1.40548 2.27581
lowerneck -19.5611 -5.72632 -13.4222
upperneck 17.8915 -7.12262 13.9958
head 9.93041 -2.73594 6.17102
rclavicle -1.39895e-014 1.23246e-014
rhumerus -47.127 10.0096 -88.3736
rradius 39.9681
rwrist -27.3582
rhand -32.1859 -22.9591
rfingers 7.12502
rthumb -5.42824 -52.8696
lclavicle -1.39895e-014 1.23246e-014
lhumerus -43.4565 -6.40064 89.0804
lradius 20.3166
lwrist -4.83734
lhand -9.61464 -22.7576
lfingers 7.12502
lthumb 16.3547 6.57283
rfemur 5.23828 0.158636 18.2682
rtibia 40.334
rfoot 11.8847 3.13172
rtoes -16.3768
lfemur -40.3228 9.09794 -24.4568
ltibia 40.6691
lfoot -9.53611 6.04506
ltoes 4.07019
251
root 9.49833 16.4931 -1.33286 9.04671 -7.1476 -0.390475
lowerback -5.9861 2.10172 -1.51959
upperback -2.41425 2.86432 1.33361
thorax 0.723321 1.44616 2.40532
lowerneck -19.9207 -5.70238 -13.4117
upperneck 17.9499 -7.05168 13.9939
head 10.0058 -2.68915 6.18111
rclavicle 9.02607e-015 -7.15625e-015
rhumerus -46.4886 9.11945 -87.3854
rradius 39.6749
rwrist -23.8564
rhand -30.5673 -27.1916
rfingers 7.12502
rthumb -3.86532 -57.1363
lclavicle 9.02607e-015 -7.15625e-015
lhumerus -42.47 -6.61038 88.822
lradius 20.3603
lwrist -5.09818
lhand -8.98243 -23.4465
lfingers 7.12502
lthumb 16.9633 5.83277
rfemur 3.77272 0.00778527 17.2388
rtibia 43.3737
rfoot 12.3555 2.4548
rtoes -17.5848
lfemur -39.0359 9.16868 -25.3033
ltibia 40.0477
lfoot -9.89129 6.26287
ltoes 3.1396
252
root 9.52676 16.5206 -1.20551 8.77544 -7.33473 0.244537
lowerback -5.73849 2.00914 -2.10217
upperback -2.20924 2.7719 1.19766
thorax 0.779952 1.39953 2.58087
lowerneck -20.6294 -5.68219 -13.3086
upperneck 18.2595 -6.99028 13.9613
head 10.2316 -2.63019 6.17135
rclavicle -1.33558e-014 -2.3059e-014
rhumerus -45.9429 8.5927 -86.9275
rradius 39.1844
rwrist -21.8334
rhand -31.7886 -28.9876
rfingers 7.12502
rthumb -5.04457 -58.9076
lclavicle -1.33558e-014 -2.3059e-014
lhumerus -41.452 -6.6859 88.679
lradius 20.6358
lwrist -4.8268
lhand -8.32805 -23.1761
lfingers 7.12502
lthumb 17.5932 6.04788
rfemur 2.25507 -0.29743 16.4387
rtibia 46.2574
rfoot 12.6073 1.17289
rtoes -18.7592
lfemur -37.8833 9.1306 -26.0506
ltibia 39.3883
lfoot -10.1601 6.46075
ltoes 2.73251
253
root 9.55419 16.551 -1.07435 8.81196 -7.32735 0.475909
lowerback -5.75882 1.79797 -2.38606
upperback -2.23549 2.50525 1.27314
thorax 0.764009 1.26834 2.80263
lowerneck -20.6944 -5.51746 -13.2483
upperneck 18.3854 -6.75815 13.866
head 10.2448 -2.52678 6.16726
rclavicle -1.46231e-014 -1.70955e-014
rhumerus -45.8473 8.90538 -86.8357
rradius 38.8627
rwrist -21.4355
rhand -32.6575 -28.763
rfingers 7.12502
rthumb -5.88357 -58.6613
lclavicle -1.46231e-014 -1.70955e-014
lhumerus -40.9959 -7.20423 89.1407
lradius 21.1377
lwrist -3.44643
lhand -8.4697 -22.5571
lfingers 7.12502
lthumb 17.4568 6.67907
rfemur 0.597748 -0.690808 16.1854
rtibia 48.9068
rfoot 12.3986 -0.408656
rtoes -19.8742
lfemur -37.0197 8.89274 -26.3734
ltibia 38.7369
lfoot -10.4009 6.72
ltoes 2.24033
254
root 9.58316 16.5898 -0.936614 8.84017 -7.41365 0.551719
lowerback -5.73188 1.68512 -2.41853
upperback -2.38522 2.35448 1.35624
thorax 0.599795 1.19791 2.89349
lowerneck -20.2883 -5.30144 -13.2064
upperneck 18.3854 -6.47895 13.7098
head 10.1166 -2.42658 6.14551
rclavicle -6.13748e-015 7.15625e-015
rhumerus -46.3383 9.66953 -86.9043
rradius 39.1675
rwrist -21.796
rhand -32.2492 -28.5542
rfingers 7.12502
rthumb -5.48933 -58.4631
lclavicle -6.13748e-015 7.15625e-015
lhumerus -40.8947 -7.39964 89.3754
lradius 21.7573
lwrist -2.68085
lhand -8.86044 -22.5248
lfingers 7.12502
lthumb 17.0808 6.74433
rfemur -1.00634 -0.906239 16.1203
rtibia 51.3059
rfoot 11.6909 -2.02736
rtoes -19.6964
lfemur -36.1626 8.71008 -26.4713
ltibia 38.1705
lfoot -10.7843 6.86
ltoes 2.99454
255
root 9.6109 16.625 -0.798941 8.65872 -7.5878 0.611086
lowerback -5.59805 1.64827 -2.31581
upperback -2.32703 2.29759 1.35235
thorax 0.593564 1.16814 2.82502
lowerneck -20.3947 -5.21251 -13.0251
upperneck 18.5092 -6.35327 13.4777
head 10.1445 -2.37671 6.05092
rclavicle -2.42766e-014 -3.97569e-016
rhumerus -46.4342 9.84808 -86.8529
rradius 39.4007
rwrist -21.792
rhand -31.1193 -29.7001
rfingers 7.12502
rthumb -4.39838 -59.6345
lclavicle -2.42766e-014 -3.97569e-016
lhumerus -40.1294 -7.10711 88.9941
lradius 21.8782
lwrist -3.37972
lhand -8.74124 -22.8879
lfingers 7.12502
lthumb 17.1955 6.37126
rfemur -2.363 -1.06949 16.0598
rtibia 53.5098
rfoot 10.5164 -3.35214
rtoes -20.2905
lfemur -35.1355 8.78652 -26.5405
ltibia 37.7175
lfoot -11.2494 6.82837
ltoes 3.891
256
root 9.63851 16.649 -0.656073 8.4171 -7.66737 0.701821
lowerback -5.54527 1.54886 -2.28569
upperback -2.169 2.16255 1.38475
thorax 0.735603 1.09642 2.83551
lowerneck -20.5729 -5.17834 -13.0079
upperneck 18.5662 -6.28304 13.4323
head 10.1845 -2.34191 6.0442
rclavicle -8.39865e-015 -1.59028e-015
rhumerus -46.1902 9.56913 -86.5732
rradius 39.3693
rwrist -21.6443
rhand -29.7255 -28.7608
rfingers 7.12502
rthumb -3.05234 -58.7187
lclavicle -8.39865e-015 -1.59028e-015
lhumerus -39.1186 -7.20226 88.8552
lradius 21.8521
lwrist -3.96735
lhand -8.58832 -22.8153
lfingers 7.12502
lthumb 17.3427 6.43092
rfemur -3.55398 -1.34817 15.9532
rtibia 55.5892
rfoot 9.42652 -4.91939
rtoes -20.1927
lfemur -34.0542 9.09294 -26.7863
ltibia 37.3341
lfoot -11.6301 6.75506
ltoes 3.16109
